<mxfile host="www.draw.io" modified="2020-02-12T15:20:19.074Z" agent="Mozilla/5.0 (Macintosh; Intel Mac OS X 10_15_3) AppleWebKit/537.36 (KHTML, like Gecko) Chrome/79.0.3945.130 Safari/537.36" etag="bEE15te3MGW9vLQRhxcf" version="12.6.8" type="github">
  <diagram id="C5RBs43oDa-KdzZeNtuy" name="Page-1">
    <mxGraphModel dx="786" dy="513" grid="1" gridSize="10" guides="1" tooltips="1" connect="1" arrows="1" fold="1" page="1" pageScale="1" pageWidth="827" pageHeight="1169" math="0" shadow="0">
      <root>
        <mxCell id="WIyWlLk6GJQsqaUBKTNV-0"/>
        <mxCell id="WIyWlLk6GJQsqaUBKTNV-1" parent="WIyWlLk6GJQsqaUBKTNV-0"/>
        <mxCell id="r1Ubp3idB1bnzAnzNdmY-6" value="Product" style="swimlane;fontStyle=1;align=center;verticalAlign=top;childLayout=stackLayout;horizontal=1;startSize=26;horizontalStack=0;resizeParent=1;resizeParentMax=0;resizeLast=0;collapsible=1;marginBottom=0;" parent="WIyWlLk6GJQsqaUBKTNV-1" vertex="1">
          <mxGeometry x="310" y="10" width="150" height="278" as="geometry"/>
        </mxCell>
        <mxCell id="r1Ubp3idB1bnzAnzNdmY-7" value="Id&#xa;name&#xa;description&#xa;supplier_id&#xa;buy_cost&#xa;sell_price&#xa;quantity" style="text;strokeColor=none;fillColor=none;align=left;verticalAlign=top;spacingLeft=4;spacingRight=4;overflow=hidden;rotatable=0;points=[[0,0.5],[1,0.5]];portConstraint=eastwest;" parent="r1Ubp3idB1bnzAnzNdmY-6" vertex="1">
          <mxGeometry y="26" width="150" height="114" as="geometry"/>
        </mxCell>
        <mxCell id="r1Ubp3idB1bnzAnzNdmY-8" value="" style="line;strokeWidth=1;fillColor=none;align=left;verticalAlign=middle;spacingTop=-1;spacingLeft=3;spacingRight=3;rotatable=0;labelPosition=right;points=[];portConstraint=eastwest;" parent="r1Ubp3idB1bnzAnzNdmY-6" vertex="1">
          <mxGeometry y="140" width="150" height="8" as="geometry"/>
        </mxCell>
        <mxCell id="r1Ubp3idB1bnzAnzNdmY-9" value="CRUD&#xa;find by supplier&#xa;status&#xa;mark up&#xa;sort by stock ND&#xa;sort by status ND&#xa;add search box ND" style="text;strokeColor=none;fillColor=none;align=left;verticalAlign=top;spacingLeft=4;spacingRight=4;overflow=hidden;rotatable=0;points=[[0,0.5],[1,0.5]];portConstraint=eastwest;fontColor=#000000;" parent="r1Ubp3idB1bnzAnzNdmY-6" vertex="1">
          <mxGeometry y="148" width="150" height="130" as="geometry"/>
        </mxCell>
        <mxCell id="r1Ubp3idB1bnzAnzNdmY-11" value="Supplier" style="swimlane;fontStyle=1;align=center;verticalAlign=top;childLayout=stackLayout;horizontal=1;startSize=26;horizontalStack=0;resizeParent=1;resizeParentMax=0;resizeLast=0;collapsible=1;marginBottom=0;" parent="WIyWlLk6GJQsqaUBKTNV-1" vertex="1">
          <mxGeometry x="50" y="10" width="150" height="278" as="geometry"/>
        </mxCell>
        <mxCell id="r1Ubp3idB1bnzAnzNdmY-12" value="Id&#xa;Name&#xa;adress&#xa;phone&#xa;email" style="text;strokeColor=none;fillColor=none;align=left;verticalAlign=top;spacingLeft=4;spacingRight=4;overflow=hidden;rotatable=0;points=[[0,0.5],[1,0.5]];portConstraint=eastwest;" parent="r1Ubp3idB1bnzAnzNdmY-11" vertex="1">
          <mxGeometry y="26" width="150" height="114" as="geometry"/>
        </mxCell>
        <mxCell id="r1Ubp3idB1bnzAnzNdmY-13" value="" style="line;strokeWidth=1;fillColor=none;align=left;verticalAlign=middle;spacingTop=-1;spacingLeft=3;spacingRight=3;rotatable=0;labelPosition=right;points=[];portConstraint=eastwest;" parent="r1Ubp3idB1bnzAnzNdmY-11" vertex="1">
          <mxGeometry y="140" width="150" height="8" as="geometry"/>
        </mxCell>
        <mxCell id="r1Ubp3idB1bnzAnzNdmY-14" value="CRUD&#xa;find products" style="text;strokeColor=none;fillColor=none;align=left;verticalAlign=top;spacingLeft=4;spacingRight=4;overflow=hidden;rotatable=0;points=[[0,0.5],[1,0.5]];portConstraint=eastwest;fontColor=#000000;" parent="r1Ubp3idB1bnzAnzNdmY-11" vertex="1">
          <mxGeometry y="148" width="150" height="130" as="geometry"/>
        </mxCell>
        <mxCell id="S_MLTUAg6lG2HM2Ji2k_-11" style="edgeStyle=none;rounded=0;orthogonalLoop=1;jettySize=auto;html=1;exitX=0;exitY=0.5;exitDx=0;exitDy=0;entryX=1;entryY=0.5;entryDx=0;entryDy=0;startArrow=none;startFill=0;endArrow=ERmany;endFill=0;" edge="1" parent="WIyWlLk6GJQsqaUBKTNV-1" source="r1Ubp3idB1bnzAnzNdmY-7" target="r1Ubp3idB1bnzAnzNdmY-12">
          <mxGeometry relative="1" as="geometry"/>
        </mxCell>
      </root>
    </mxGraphModel>
  </diagram>
</mxfile>
